<svg xmlns:xlink="http://www.w3.org/1999/xlink" class="ui-pdp-icon ui-seller-data-header__icon-verified" xmlns="http://www.w3.org/2000/svg" width="14" height="14" viewBox="0 0 14 14"><defs><symbol id="verified_small"><g fill="none" fill-rule="evenodd"><g fill="#3483FA"><g><g><path d="M165.868 7.288l.403 1.44 1.441.405c.521.146.946.523 1.154 1.023.207.5.173 1.067-.092 1.54L168.041 13l.732 1.303c.265.472.3 1.04.093 1.54s-.633.878-1.154 1.024l-1.44.404-.405 1.441c-.146.521-.523.946-1.023 1.154-.5.207-1.068.173-1.54-.092L162 19.041l-1.303.732c-.472.265-1.04.3-1.54.093s-.878-.633-1.024-1.154l-.404-1.44-1.441-.405c-.521-.146-.946-.523-1.154-1.023-.207-.5-.173-1.068.092-1.54l.733-1.304-.732-1.304c-.265-.471-.3-1.039-.093-1.54.207-.5.633-.877 1.154-1.023l1.44-.405.405-1.44c.146-.521.523-.946 1.023-1.153.5-.207 1.067-.174 1.539.09l1.304.734 1.303-.732c.408-.23.89-.288 1.342-.162.45.127.832.427 1.062.835.07.122.124.252.162.388zm-1.718 3.332l-2.97 2.97-1.33-1.334c-.081-.083-.193-.13-.309-.127-.115-.002-.227.044-.307.127l-.617.615c-.083.08-.129.192-.126.307 0 .12.042.223.126.307l2.256 2.252c.08.083.192.129.308.127.115.002.227-.044.308-.127l3.894-3.888c.083-.08.129-.192.126-.308.002-.115-.043-.226-.126-.307l-.617-.615c-.08-.083-.192-.129-.307-.127-.117-.001-.228.045-.31.128z" transform="translate(-211 -54) translate(0 48) translate(56)"></path></g></g></g></g></symbol></defs><use href="#verified_small"></use></svg>